# xmcd
#
# Track frame offsets:
#	150
#	13043
#	22132
#	33798
#	46095
#	57894
#	68233
#	79906
#	91036
#	104957
#	117439
#	128918
#	142461
#	159658
#	171893
#	182361
#	196202
#	209507
#	220812
#	231738
#	243623
#	255870
#	266031
#	276638
#
# Disc length: 3862 seconds
#
# Revision: 2
# Processed by: cddbd v1.4PL0 Copyright (c) Steve Scherf et al.
# Submitted via: audiograbber 1.82.00
#
DISCID=6f0f1418
DTITLE=Blues - The Very Best Of Sun Blues - Feelin' Good
DYEAR=2001
DGENRE=Blues
TTITLE0=Rufus Thomas Jr. - Bear Cat
TTITLE1=Rosco Gordon - I'm Gonna Shake It
TTITLE2=Little Milton - It You Love Me Baby
TTITLE3=Billy "The Kid" Emerson - Move Baby Move
TTITLE4=Sammy Lewis/Willie Johnson Combo - I Feel So Worried
TTITLE5=Walter Horton - Off The Wall
TTITLE6=Mose Vinson - Mistreatin' Boogie
TTITLE7=Howlin' Wolf - Highway Man
TTITLE8=Walter Bradford - Reward For My Baby
TTITLE9=Joe Hill Louis - Gotta Let You Go
TTITLE10=Albert Williams - Rhumba Chillen
TTITLE11=David "Honeyboy" Edwards - Sweet Home Chicago
TTITLE12=Doctor Ross - Left Job Boogie
TTITLE13=Billy "Red" Love - Hart's Bread Boogie
TTITLE14=Earl Hooker - Move On Down The Line
TTITLE15=James Cotton - Cotton Crop Blues
TTITLE16=Pat Hare - I'm Gonna Murder My Baby
TTITLE17=Johnny O'Neal - Ugly Woman
TTITLE18=Scott Jr. Blues Rockers - Flypaper Boogie
TTITLE19=Coy "Hot Shot" Love - Wolf Call Boogie
TTITLE20=Big Memphis Ma Rainey - Baby, No No!
TTITLE21=Lost John Hunter and His Blind Bats - Cool Down Mama
TTITLE22=Jimmy DeBerry - Take A Little Chance
TTITLE23=Little Junior's Blue Flames - Feelin' Good
EXTD=Sun Records - SELCD 594
EXTT0=
EXTT1=
EXTT2=
EXTT3=
EXTT4=
EXTT5=
EXTT6=
EXTT7=
EXTT8=
EXTT9=
EXTT10=
EXTT11=
EXTT12=
EXTT13=
EXTT14=
EXTT15=
EXTT16=
EXTT17=
EXTT18=
EXTT19=
EXTT20=
EXTT21=
EXTT22=
EXTT23=
PLAYORDER=
